<svg width="20" height="20" viewBox="0 0 20 20" fill="none" xmlns="http://www.w3.org/2000/svg">
<path fill-rule="evenodd" clip-rule="evenodd" d="M9.99935 18.3333C14.6017 18.3333 18.3327 14.6023 18.3327 9.99996C18.3327 5.39759 14.6017 1.66663 9.99935 1.66663C5.39698 1.66663 1.66602 5.39759 1.66602 9.99996C1.66602 14.6023 5.39698 18.3333 9.99935 18.3333ZM10.6243 7.49996C10.6243 7.15478 10.3445 6.87496 9.99935 6.87496C9.65417 6.87496 9.37435 7.15478 9.37435 7.49996V9.37496H7.49935C7.15417 9.37496 6.87435 9.65478 6.87435 9.99996C6.87435 10.3451 7.15417 10.625 7.49935 10.625H9.37435V12.5C9.37435 12.8451 9.65417 13.125 9.99935 13.125C10.3445 13.125 10.6243 12.8451 10.6243 12.5V10.625H12.4993C12.8445 10.625 13.1243 10.3451 13.1243 9.99996C13.1243 9.65478 12.8445 9.37496 12.4993 9.37496H10.6243V7.49996Z" fill="currentColor"/>
</svg>
