<svg width="25" height="25" viewBox="0 0 25 25" fill="none" xmlns="http://www.w3.org/2000/svg">
<path d="M8.53827 4.49658C7.77576 4.49658 5.47688 5.42917 5.06444 5.61555C4.65201 5.80192 4.19422 6.38373 3.67477 7.34396C3.15462 8.30418 2.73722 9.42669 2.05904 11.0779C1.38157 12.729 1.22354 15.9123 1.24621 16.8839C1.26889 17.8554 1.38015 18.6144 2.37581 19.1891C3.37076 19.7631 4.25091 20.3641 5.17712 20.7255C6.10404 21.0869 6.73616 21.347 7.1656 20.9856C7.59505 20.6241 7.8778 19.9913 7.8778 19.9913C7.8778 19.9913 8.28457 19.4265 7.51639 19.0878C6.74821 18.7483 6.36412 18.5109 6.39742 18.1609C6.43144 17.8108 6.48742 17.6187 6.67947 17.6641C6.87151 17.7094 7.32434 18.5223 9.06409 18.895C10.8038 19.2678 12.4996 19.2118 12.4996 19.2118C12.4996 19.2118 14.1962 19.2685 15.9359 18.895C17.6757 18.5223 18.1278 17.7094 18.3198 17.6641C18.5119 17.6187 18.5679 17.8108 18.6019 18.1601C18.6359 18.5109 18.2518 18.7483 17.4836 19.0878C16.7154 19.4265 17.1222 19.9913 17.1222 19.9913C17.1222 19.9913 17.405 20.6234 17.8344 20.9856C18.2631 21.347 18.896 21.0869 19.8222 20.7255C20.7484 20.3641 21.6292 19.7638 22.6242 19.1891C23.6199 18.6144 23.7311 17.8554 23.7538 16.8839C23.7765 15.913 23.6184 12.729 22.9403 11.0779C22.2628 9.42669 21.8447 8.30418 21.3245 7.34396C20.8058 6.38373 20.3473 5.80192 19.9356 5.61484C19.5231 5.42917 17.2235 4.49658 16.461 4.49658C15.6985 4.49658 15.4732 5.02807 15.4732 5.02807L15.2074 5.61555C15.2074 5.61555 13.4216 5.2761 12.5117 5.27539C11.6018 5.27539 9.79259 5.61555 9.79259 5.61555L9.52684 5.02736C9.52684 5.02736 9.30149 4.49658 8.53827 4.49658ZM8.62118 11.5463H8.64953C9.76141 11.5463 10.6621 12.5193 10.6621 13.719C10.6621 14.9195 9.76141 15.8917 8.64953 15.8917C7.53765 15.8917 6.63695 14.9195 6.63695 13.719C6.63624 12.5306 7.52064 11.5626 8.62118 11.5463ZM16.3505 11.5463H16.3788C17.4794 11.5626 18.3631 12.5313 18.3631 13.719C18.3631 14.9195 17.4624 15.8917 16.3505 15.8917C15.2379 15.8917 14.3379 14.9195 14.3379 13.719C14.3379 12.5193 15.2379 11.5463 16.3505 11.5463Z" fill="currentColor"/>
</svg>
