<svg width="16" height="20" viewBox="0 0 16 20" fill="none" xmlns="http://www.w3.org/2000/svg">
<path d="M13.4312 10.6495L14.174 10.7529L13.4312 10.6495ZM13.2126 12.2204L13.9554 12.3238L13.2126 12.2204ZM2.78778 12.2204L3.53062 12.117L2.78778 12.2204ZM2.56916 10.6495L1.82632 10.7529L2.56916 10.6495ZM5.6532 18.114L5.36161 18.805L5.6532 18.114ZM3.39606 15.4669L4.10005 15.2082L3.39606 15.4669ZM12.6043 15.4669L13.3082 15.7255H13.3082L12.6043 15.4669ZM10.3471 18.114L10.0555 17.423L10.3471 18.114ZM2.91347 7.42902C2.87429 7.01666 2.50825 6.71414 2.09589 6.75332C1.68353 6.7925 1.38101 7.15854 1.42019 7.5709L2.91347 7.42902ZM14.5801 7.5709C14.6193 7.15854 14.3168 6.7925 13.9044 6.75332C13.4921 6.71414 13.126 7.01666 13.0869 7.42902L14.5801 7.5709ZM14.6668 6.58329C15.081 6.58329 15.4168 6.24751 15.4168 5.83329C15.4168 5.41908 15.081 5.08329 14.6668 5.08329V6.58329ZM1.3335 5.08329C0.919283 5.08329 0.583496 5.41908 0.583496 5.83329C0.583496 6.24751 0.919283 6.58329 1.3335 6.58329V5.08329ZM11.3335 5.83329V6.58329H12.0835V5.83329H11.3335ZM4.66683 5.83329H3.91683V6.58329H4.66683V5.83329ZM12.6883 10.5462L12.4697 12.117L13.9554 12.3238L14.174 10.7529L12.6883 10.5462ZM3.53062 12.117L3.312 10.5462L1.82632 10.7529L2.04494 12.3238L3.53062 12.117ZM8.00016 17.5833C6.71463 17.5833 6.29105 17.5691 5.94479 17.423L5.36161 18.805C6.05476 19.0975 6.84937 19.0833 8.00016 19.0833V17.5833ZM2.04494 12.3238C2.27712 13.9922 2.40542 14.9454 2.69208 15.7255L4.10005 15.2082C3.88292 14.6173 3.77363 13.8632 3.53062 12.117L2.04494 12.3238ZM5.94479 17.423C5.21672 17.1158 4.52174 16.356 4.10005 15.2082L2.69208 15.7255C3.21248 17.142 4.14598 18.292 5.36161 18.805L5.94479 17.423ZM12.4697 12.117C12.2267 13.8632 12.1174 14.6173 11.9003 15.2082L13.3082 15.7255C13.5949 14.9454 13.7232 13.9922 13.9554 12.3238L12.4697 12.117ZM8.00016 19.0833C9.15095 19.0833 9.94557 19.0975 10.6387 18.805L10.0555 17.423C9.70927 17.5691 9.2857 17.5833 8.00016 17.5833V19.0833ZM11.9003 15.2082C11.4786 16.356 10.7836 17.1158 10.0555 17.423L10.6387 18.805C11.8543 18.292 12.7878 17.142 13.3082 15.7255L11.9003 15.2082ZM3.312 10.5462C3.12675 9.21502 2.989 8.22399 2.91347 7.42902L1.42019 7.5709C1.49953 8.40593 1.64285 9.43454 1.82632 10.7529L3.312 10.5462ZM14.174 10.7529C14.3575 9.43454 14.5008 8.40593 14.5801 7.5709L13.0869 7.42902C13.0113 8.22398 12.8736 9.21502 12.6883 10.5462L14.174 10.7529ZM14.6668 5.08329H1.3335V6.58329H14.6668V5.08329ZM10.5835 4.99996V5.83329H12.0835V4.99996H10.5835ZM11.3335 5.08329H4.66683V6.58329H11.3335V5.08329ZM5.41683 5.83329V4.99996H3.91683V5.83329H5.41683ZM8.00016 2.41663C9.4269 2.41663 10.5835 3.57322 10.5835 4.99996H12.0835C12.0835 2.7448 10.2553 0.916626 8.00016 0.916626V2.41663ZM8.00016 0.916626C5.745 0.916626 3.91683 2.7448 3.91683 4.99996H5.41683C5.41683 3.57322 6.57343 2.41663 8.00016 2.41663V0.916626Z" fill="currentColor"/>
</svg>
