<svg width="18" height="18" viewBox="0 0 18 18" fill="none" xmlns="http://www.w3.org/2000/svg">
<path fill-rule="evenodd" clip-rule="evenodd" d="M0.0410156 8.99996C0.0410156 4.05241 4.0518 0.041626 8.99935 0.041626C13.9469 0.041626 17.9577 4.05241 17.9577 8.99996C17.9577 13.9475 13.9469 17.9583 8.99935 17.9583C4.0518 17.9583 0.0410156 13.9475 0.0410156 8.99996ZM11.6553 6.34397C11.8994 6.58805 11.8994 6.98377 11.6553 7.22785L6.94129 11.9419C6.69721 12.186 6.30149 12.186 6.05741 11.9419C5.81333 11.6978 5.81333 11.3021 6.05741 11.058L10.7715 6.34397C11.0155 6.09989 11.4113 6.09989 11.6553 6.34397ZM6.49935 7.33329C6.03911 7.33329 5.66602 6.9602 5.66602 6.49996C5.66602 6.03972 6.03911 5.66663 6.49935 5.66663C6.95959 5.66663 7.33268 6.03972 7.33268 6.49996C7.33268 6.9602 6.95959 7.33329 6.49935 7.33329ZM11.4993 12.3333C11.0391 12.3333 10.666 11.9602 10.666 11.5C10.666 11.0397 11.0391 10.6666 11.4993 10.6666C11.9596 10.6666 12.3327 11.0397 12.3327 11.5C12.3327 11.9602 11.9596 12.3333 11.4993 12.3333Z" fill="currentColor"/>
</svg>
