<svg width="16" height="17" viewBox="0 0 16 17" fill="none" xmlns="http://www.w3.org/2000/svg">
<path d="M3.90336 13.2515L4.3442 12.6447H4.3442L3.90336 13.2515ZM3.32682 12.6749L2.72005 13.1157H2.72005L3.32682 12.6749ZM11.7132 12.6749L11.1065 12.2341L11.7132 12.6749ZM11.1367 13.2515L10.6959 12.6447L10.6959 12.6447L11.1367 13.2515ZM3.90336 4.86504L3.46252 4.25827H3.46252L3.90336 4.86504ZM3.32682 5.44158L2.72005 5.00074H2.72005L3.32682 5.44158ZM8.55346 5.12102C8.96765 5.12599 9.30743 4.79425 9.3124 4.38007C9.31736 3.96588 8.98563 3.6261 8.57144 3.62113L8.55346 5.12102ZM12.9571 8.00683C12.9522 7.59264 12.6124 7.26091 12.1982 7.26587C11.784 7.27084 11.4523 7.61062 11.4572 8.02481L12.9571 8.00683ZM6.74773 8.44934C6.45483 8.74223 6.45483 9.21711 6.74773 9.51C7.04062 9.80289 7.51549 9.80289 7.80839 9.51L6.74773 8.44934ZM9.85458 1.96426C9.44038 1.96611 9.10609 2.30339 9.10794 2.7176C9.10979 3.13181 9.44707 3.4661 9.86128 3.46425L9.85458 1.96426ZM11.1517 2.70848L11.155 3.45848L11.1517 2.70848ZM13.5492 5.10607L12.7992 5.10272L13.5492 5.10607ZM12.7935 6.39645C12.7916 6.81066 13.1259 7.14794 13.5401 7.14979C13.9543 7.15163 14.2916 6.81735 14.2935 6.40314L12.7935 6.39645ZM13.0521 2.97466L13.5111 2.38153L13.5111 2.38153L13.0521 2.97466ZM13.2831 3.20562L13.8762 2.7466V2.7466L13.2831 3.20562ZM13.1634 3.09437L12.7033 2.50201L12.6662 2.53083L12.633 2.56404L13.1634 3.09437ZM7.52003 12.9992C6.52611 12.9992 5.84092 12.9981 5.31647 12.9413C4.80604 12.886 4.53756 12.7852 4.3442 12.6447L3.46252 13.8582C3.95421 14.2154 4.51685 14.3635 5.1549 14.4326C5.77891 14.5002 6.55953 14.4992 7.52003 14.4992V12.9992ZM2.0791 9.05824C2.0791 10.0187 2.07807 10.7994 2.14568 11.4234C2.21481 12.0614 2.36283 12.6241 2.72005 13.1157L3.93358 12.2341C3.79309 12.0407 3.69225 11.7722 3.63695 11.2618C3.58013 10.7373 3.5791 10.0522 3.5791 9.05824H2.0791ZM4.3442 12.6447C4.18663 12.5302 4.04806 12.3916 3.93358 12.2341L2.72005 13.1157C2.92705 13.4007 3.17761 13.6512 3.46252 13.8582L4.3442 12.6447ZM11.4609 9.05824C11.4609 10.0522 11.4599 10.7373 11.4031 11.2618C11.3478 11.7722 11.247 12.0407 11.1065 12.2341L12.32 13.1157C12.6772 12.6241 12.8252 12.0614 12.8944 11.4234C12.962 10.7994 12.9609 10.0187 12.9609 9.05824H11.4609ZM7.52003 14.4992C8.48053 14.4992 9.26114 14.5002 9.88515 14.4326C10.5232 14.3635 11.0858 14.2154 11.5775 13.8582L10.6959 12.6447C10.5025 12.7852 10.234 12.886 9.72359 12.9413C9.19913 12.9981 8.51394 12.9992 7.52003 12.9992V14.4992ZM11.1065 12.2341C10.992 12.3916 10.8534 12.5302 10.6959 12.6447L11.5775 13.8582C11.8624 13.6512 12.113 13.4007 12.32 13.1157L11.1065 12.2341ZM7.52003 3.61732C6.55953 3.61732 5.77891 3.61629 5.1549 3.6839C4.51685 3.75303 3.95421 3.90104 3.46252 4.25827L4.3442 5.4718C4.53756 5.33131 4.80604 5.23047 5.31647 5.17517C5.84092 5.11835 6.52611 5.11732 7.52003 5.11732V3.61732ZM3.5791 9.05824C3.5791 8.06433 3.58013 7.37914 3.63695 6.85469C3.69225 6.34426 3.79309 6.07578 3.93358 5.88242L2.72005 5.00074C2.36283 5.49242 2.21481 6.05507 2.14568 6.69312C2.07807 7.31713 2.0791 8.09774 2.0791 9.05824H3.5791ZM3.46252 4.25827C3.17761 4.46527 2.92705 4.71583 2.72005 5.00074L3.93358 5.88242C4.04806 5.72485 4.18663 5.58628 4.3442 5.4718L3.46252 4.25827ZM7.52003 5.11732C7.90457 5.11732 8.24552 5.11733 8.55346 5.12102L8.57144 3.62113C8.25273 3.61731 7.90218 3.61732 7.52003 3.61732V5.11732ZM12.9609 9.05824C12.9609 8.67609 12.961 8.32554 12.9571 8.00683L11.4572 8.02481C11.4609 8.33275 11.4609 8.6737 11.4609 9.05824H12.9609ZM9.86128 3.46425L11.155 3.45848L11.1483 1.95849L9.85458 1.96426L9.86128 3.46425ZM12.7992 5.10272L12.7935 6.39645L14.2935 6.40314L14.2992 5.10941L12.7992 5.10272ZM11.155 3.45848C11.6885 3.4561 12.0252 3.45573 12.275 3.48301C12.5097 3.50864 12.5709 3.55064 12.5931 3.56779L13.5111 2.38153C13.1804 2.1256 12.8072 2.03221 12.4379 1.99187C12.0836 1.95318 11.6465 1.95627 11.1483 1.95849L11.155 3.45848ZM14.2992 5.10941C14.3015 4.61119 14.3045 4.17414 14.2659 3.81985C14.2255 3.45048 14.1321 3.07731 13.8762 2.7466L12.6899 3.66464C12.7071 3.68679 12.7491 3.74799 12.7747 3.98269C12.802 4.23248 12.8016 4.56922 12.7992 5.10272L14.2992 5.10941ZM7.80839 9.51L13.6937 3.6247L12.633 2.56404L6.74773 8.44934L7.80839 9.51ZM12.5931 3.56779C12.6114 3.582 12.6288 3.59735 12.6452 3.61375L13.7075 2.55478C13.6459 2.49295 13.5803 2.43507 13.5111 2.38153L12.5931 3.56779ZM12.6452 3.61375C12.6611 3.62974 12.6761 3.64673 12.6899 3.66464L13.8762 2.7466C13.824 2.67914 13.7677 2.61508 13.7075 2.55478L12.6452 3.61375ZM13.6234 3.68673L13.6364 3.67662L12.7164 2.49191L12.7033 2.50201L13.6234 3.68673Z" fill="currentColor"/>
</svg>
