<svg width="20" height="20" viewBox="0 0 20 20" fill="none" xmlns="http://www.w3.org/2000/svg">
<path d="M2.78217 6.93844L2.8995 7.67921H2.8995L2.78217 6.93844ZM6.93844 2.78217L7.67921 2.8995V2.8995L6.93844 2.78217ZM16.9389 18.0451L16.4981 17.4383L16.9389 18.0451ZM18.0451 16.9389L17.4383 16.4981L18.0451 16.9389ZM1.95491 16.9389L2.56168 16.4981L1.95491 16.9389ZM3.06107 18.0451L3.50191 17.4383L3.06107 18.0451ZM3.06107 1.95491L2.62024 1.34815L3.06107 1.95491ZM1.95491 3.06107L1.34815 2.62023L1.95491 3.06107ZM16.9389 1.95491L16.4981 2.56168L16.9389 1.95491ZM18.0451 3.06107L17.4383 3.50191L18.0451 3.06107ZM7 1.02893L6.97432 0.279368L7 1.02893ZM1.02893 7L0.279369 6.97432L1.02893 7ZM11 13.25C10.5858 13.25 10.25 13.5858 10.25 14C10.25 14.4142 10.5858 14.75 11 14.75V13.25ZM14 14.75C14.4142 14.75 14.75 14.4142 14.75 14C14.75 13.5858 14.4142 13.25 14 13.25V14.75ZM6 9.25C5.58579 9.25 5.25 9.58579 5.25 10C5.25 10.4142 5.58579 10.75 6 10.75V9.25ZM14 10.75C14.4142 10.75 14.75 10.4142 14.75 10C14.75 9.58579 14.4142 9.25 14 9.25V10.75ZM11 5.25C10.5858 5.25 10.25 5.58579 10.25 6C10.25 6.41421 10.5858 6.75 11 6.75V5.25ZM14 6.75C14.4142 6.75 14.75 6.41421 14.75 6C14.75 5.58579 14.4142 5.25 14 5.25V6.75ZM2.8995 7.67921C5.35988 7.28952 7.28952 5.35988 7.67921 2.8995L6.19768 2.66485C5.90965 4.48339 4.48339 5.90965 2.66485 6.19768L2.8995 7.67921ZM10 19.75C11.8582 19.75 13.312 19.751 14.4635 19.6263C15.6291 19.5 16.5734 19.2377 17.3798 18.6518L16.4981 17.4383C15.9901 17.8074 15.3399 18.0225 14.302 18.135C13.25 18.249 11.8916 18.25 10 18.25V19.75ZM18.25 10C18.25 11.8916 18.249 13.25 18.135 14.302C18.0225 15.3399 17.8074 15.9901 17.4383 16.4981L18.6518 17.3798C19.2377 16.5734 19.5 15.6291 19.6263 14.4635C19.751 13.312 19.75 11.8582 19.75 10H18.25ZM17.3798 18.6518C17.8679 18.2972 18.2972 17.8679 18.6518 17.3798L17.4383 16.4981C17.1762 16.8589 16.8589 17.1762 16.4981 17.4383L17.3798 18.6518ZM0.25 10C0.25 11.8582 0.24897 13.312 0.373727 14.4635C0.500005 15.6291 0.762323 16.5734 1.34815 17.3798L2.56168 16.4981C2.19259 15.9901 1.97745 15.3399 1.865 14.302C1.75103 13.25 1.75 11.8916 1.75 10H0.25ZM10 18.25C8.10843 18.25 6.74999 18.249 5.69804 18.135C4.66013 18.0225 4.00992 17.8074 3.50191 17.4383L2.62024 18.6518C3.42656 19.2377 4.37094 19.5 5.53648 19.6263C6.68798 19.751 8.14184 19.75 10 19.75V18.25ZM1.34815 17.3798C1.70281 17.8679 2.13209 18.2972 2.62024 18.6518L3.50191 17.4383C3.14111 17.1762 2.82382 16.8589 2.56168 16.4981L1.34815 17.3798ZM2.62024 1.34815C2.13209 1.70281 1.70281 2.13209 1.34815 2.62023L2.56168 3.50191C2.82381 3.14111 3.14111 2.82382 3.50191 2.56168L2.62024 1.34815ZM10 1.75C11.8916 1.75 13.25 1.75103 14.302 1.865C15.3399 1.97745 15.9901 2.19259 16.4981 2.56168L17.3798 1.34815C16.5734 0.762324 15.6291 0.500006 14.4635 0.373728C13.312 0.248971 11.8582 0.25 10 0.25V1.75ZM19.75 10C19.75 8.14184 19.751 6.68798 19.6263 5.53648C19.5 4.37094 19.2377 3.42656 18.6518 2.62023L17.4383 3.50191C17.8074 4.00992 18.0225 4.66013 18.135 5.69804C18.249 6.74999 18.25 8.10843 18.25 10H19.75ZM16.4981 2.56168C16.8589 2.82382 17.1762 3.14111 17.4383 3.50191L18.6518 2.62023C18.2972 2.13209 17.8679 1.70281 17.3798 1.34815L16.4981 2.56168ZM10 0.25C8.83522 0.25 7.83424 0.249906 6.97432 0.279368L7.02568 1.77849C7.85445 1.75009 8.82692 1.75 10 1.75V0.25ZM6.97432 0.279368C5.10087 0.343555 3.7239 0.546296 2.62024 1.34815L3.50191 2.56168C4.20746 2.04907 5.17075 1.84204 7.02568 1.77849L6.97432 0.279368ZM6.25 1.02892C6.24999 1.96617 6.24707 2.35298 6.19768 2.66485L7.67921 2.8995C7.75165 2.44215 7.74999 1.91121 7.75 1.02893L6.25 1.02892ZM1.75 10C1.75 8.82692 1.75009 7.85445 1.77849 7.02568L0.279369 6.97432C0.249906 7.83424 0.25 8.83522 0.25 10H1.75ZM1.77849 7.02568C1.84204 5.17075 2.04907 4.20746 2.56168 3.50191L1.34815 2.62023C0.546295 3.7239 0.343555 5.10087 0.279369 6.97432L1.77849 7.02568ZM1.02893 7.75C1.91121 7.74999 2.44215 7.75165 2.8995 7.67921L2.66485 6.19768C2.35298 6.24707 1.96618 6.24999 1.02892 6.25L1.02893 7.75ZM11 14.75H14V13.25H11V14.75ZM6 10.75H14V9.25H6V10.75ZM11 6.75H14V5.25H11V6.75Z" fill="currentColor"/>
</svg>
