<svg width="24" height="24" viewBox="0 0 24 24" fill="none" xmlns="http://www.w3.org/2000/svg">
<rect width="24" height="24" rx="12" fill="#C8ECE1"/>
<path d="M17.5051 8.4825C17.4082 8.56981 17.2831 8.61919 17.1528 8.62157H4.77205C4.33245 8.62157 4.11071 8.11938 4.41511 7.8258L6.44856 5.86497C6.54306 5.7737 6.66873 5.72178 6.80009 5.71973H19.2295C19.673 5.71973 19.89 6.22654 19.5818 6.52167L17.5051 8.4825Z" fill="#308D8A"/>
<path d="M17.5051 18.1451C17.4077 18.231 17.2826 18.279 17.1528 18.2803H4.77205C4.33245 18.2803 4.11071 17.782 4.41511 17.4876L6.44856 15.5222C6.54347 15.4322 6.66932 15.3821 6.80009 15.3823H19.2295C19.673 15.3823 19.89 15.8845 19.5818 16.1781L17.5051 18.1451Z" fill="#308D8A"/>
<path d="M17.5051 10.6889C17.4077 10.603 17.2826 10.555 17.1528 10.5537H4.77205C4.33245 10.5537 4.11071 11.052 4.41511 11.3456L6.44856 13.3118C6.5452 13.399 6.67 13.4484 6.80009 13.4509H19.2295C19.673 13.4509 19.89 12.9487 19.5818 12.6551L17.5051 10.6889Z" fill="#308D8A"/>
</svg>
