<svg width="24" height="24" viewBox="0 0 22 22" fill="#141414" stroke="#141414" stroke-width="1" xmlns="http://www.w3.org/2000/svg">
<path d="M18.0597 10.5063L18.0598 10.5064L20.3305 11.3582L18.0597 12.2106L18.0597 12.2106C15.1467 13.3044 12.8539 15.6323 11.778 18.5813C11.778 18.5813 11.778 18.5813 11.778 18.5814L10.9457 20.8618L10.1135 18.5814C10.1135 18.5814 10.1135 18.5813 10.1135 18.5813C9.0375 15.6316 6.74395 13.3044 3.8318 12.2106L3.83171 12.2106L1.5609 11.3582L3.83161 10.5064L3.8318 10.5063C6.744 9.41249 9.03752 7.08461 10.1135 4.1356C10.1135 4.13558 10.1135 4.13557 10.1135 4.13555L10.9457 1.85511L11.778 4.13551C11.778 4.13554 11.778 4.13557 11.778 4.1356C12.8539 7.08535 15.1475 9.41252 18.0597 10.5063ZM20.9364 11.1308L20.9361 11.1309L20.9364 11.1308ZM11.1781 21.4984L11.1779 21.4981L11.1781 21.4984Z" />
</svg>
