<svg width="20" height="20" viewBox="0 0 20 20" fill="none" xmlns="http://www.w3.org/2000/svg">
<path d="M6.58333 4.16671C6.58333 3.75249 6.24755 3.41671 5.83333 3.41671C5.41912 3.41671 5.08333 3.75249 5.08333 4.16671L6.58333 4.16671ZM5.83333 15H6.58333H5.83333ZM3.08768 12.0341C2.83034 11.7095 2.3586 11.655 2.03403 11.9124C1.70946 12.1697 1.65497 12.6414 1.91232 12.966L3.08768 12.0341ZM3.66487 13.9692L3.07719 14.4352L3.66487 13.9692ZM8.00179 13.9692L7.41411 13.5032H7.41411L8.00179 13.9692ZM9.75435 12.966C10.0117 12.6414 9.9572 12.1697 9.63264 11.9124C9.30807 11.655 8.83633 11.7095 8.57898 12.0341L9.75435 12.966ZM5.62444 15.8168L5.50644 16.5575H5.50644L5.62444 15.8168ZM6.04222 15.8168L6.16023 16.5575H6.16023L6.04222 15.8168ZM13.4167 15C13.4167 15.4143 13.7525 15.75 14.1667 15.75C14.5809 15.75 14.9167 15.4143 14.9167 15H13.4167ZM14.1667 4.16671H13.4167V4.16671L14.1667 4.16671ZM10.2456 6.20074C9.9883 6.52531 10.0428 6.99704 10.3674 7.25439C10.6919 7.51174 11.1637 7.45725 11.421 7.13268L10.2456 6.20074ZM11.9982 5.19757L11.4105 4.7316L11.9982 5.19757ZM16.3351 5.19757L16.9228 4.7316L16.3351 5.19757ZM16.9123 7.13268C17.1697 7.45725 17.6414 7.51174 17.966 7.25439C18.2905 6.99704 18.345 6.52531 18.0877 6.20074L16.9123 7.13268ZM13.9578 3.34995L13.8398 2.60929L13.8398 2.60929L13.9578 3.34995ZM14.3756 3.34995L14.4936 2.60929L14.4936 2.60929L14.3756 3.34995ZM5.08333 4.16671L5.08333 15H6.58333L6.58333 4.16671L5.08333 4.16671ZM1.91232 12.966L3.07719 14.4352L4.25256 13.5032L3.08768 12.0341L1.91232 12.966ZM8.58948 14.4352L9.75435 12.966L8.57898 12.0341L7.41411 13.5032L8.58948 14.4352ZM3.07719 14.4352C3.53029 15.0066 3.9092 15.4863 4.24937 15.8278C4.59288 16.1727 4.98988 16.4752 5.50644 16.5575L5.74245 15.0761C5.69288 15.0682 5.57458 15.0327 5.31207 14.7692C5.04623 14.5023 4.72842 14.1034 4.25256 13.5032L3.07719 14.4352ZM7.41411 13.5032C6.93825 14.1034 6.62044 14.5023 6.35459 14.7692C6.09209 15.0327 5.97379 15.0682 5.92421 15.0761L6.16023 16.5575C6.67679 16.4752 7.07379 16.1727 7.4173 15.8278C7.75746 15.4863 8.13638 15.0066 8.58948 14.4352L7.41411 13.5032ZM14.9167 15L14.9167 4.16671L13.4167 4.16671L13.4167 15H14.9167ZM11.421 7.13268L12.5859 5.66354L11.4105 4.7316L10.2456 6.20074L11.421 7.13268ZM15.7474 5.66354L16.9123 7.13268L18.0877 6.20074L16.9228 4.7316L15.7474 5.66354ZM12.5859 5.66354C13.0618 5.06337 13.3796 4.66441 13.6454 4.39753C13.9079 4.13402 14.0262 4.0985 14.0758 4.09061L13.8398 2.60929C13.3232 2.69159 12.9262 2.99408 12.5827 3.33892C12.2425 3.6804 11.8636 4.16015 11.4105 4.7316L12.5859 5.66354ZM16.9228 4.7316C16.4697 4.16015 16.0908 3.6804 15.7506 3.33892C15.4071 2.99408 15.0101 2.69159 14.4936 2.60929L14.2575 4.09061C14.3071 4.0985 14.4254 4.13402 14.6879 4.39753C14.9538 4.66441 15.2716 5.06338 15.7474 5.66354L16.9228 4.7316ZM14.0758 4.09061C14.1062 4.08575 14.1366 4.08337 14.1667 4.08337V2.58337C14.0572 2.58337 13.948 2.59205 13.8398 2.60929L14.0758 4.09061ZM14.1667 4.08337C14.1968 4.08337 14.2271 4.08575 14.2575 4.09061L14.4936 2.60929C14.3853 2.59205 14.2761 2.58337 14.1667 2.58337V4.08337ZM14.9167 4.16671V3.33337H13.4167V4.16671H14.9167ZM5.50644 16.5575C5.61468 16.5747 5.7239 16.5834 5.83333 16.5834L5.83333 15.0834C5.80323 15.0834 5.77292 15.081 5.74245 15.0761L5.50644 16.5575ZM5.83333 16.5834C5.94276 16.5834 6.05199 16.5747 6.16023 16.5575L5.92422 15.0761C5.89375 15.081 5.86344 15.0834 5.83333 15.0834L5.83333 16.5834ZM5.08333 15V15.8334H6.58333V15H5.08333Z" fill="currentColor"/>
</svg>
