<svg width="18" height="18" viewBox="0 0 18 18" fill="none" xmlns="http://www.w3.org/2000/svg">
<path d="M5.01486 16.4487L4.89753 17.1895H4.89753L5.01486 16.4487ZM1.5513 12.9851L2.29206 12.8678L1.5513 12.9851ZM16.4487 12.9851L17.1895 13.1025L17.1895 13.1025L16.4487 12.9851ZM12.9851 16.4487L13.1025 17.1895H13.1025L12.9851 16.4487ZM16.2666 7.71623C16.0179 7.38504 15.5477 7.31822 15.2165 7.56699C14.8853 7.81576 14.8185 8.28591 15.0673 8.6171L16.2666 7.71623ZM2.9327 8.6171C3.18147 8.28591 3.11465 7.81576 2.78346 7.56699C2.45227 7.31822 1.98212 7.38504 1.73335 7.71623L2.9327 8.6171ZM8.25 13.1667C8.25 13.5809 8.58579 13.9167 9 13.9167C9.41422 13.9167 9.75 13.5809 9.75 13.1667H8.25ZM5.07898 4.36736C4.82164 4.69193 4.87613 5.16367 5.2007 5.42102C5.52527 5.67836 5.997 5.62387 6.25435 5.2993L5.07898 4.36736ZM6.83154 3.36419L6.24386 2.89822H6.24386L6.83154 3.36419ZM11.1685 3.36419L11.7561 2.89822L11.1685 3.36419ZM11.7457 5.2993C12.003 5.62387 12.4747 5.67837 12.7993 5.42102C13.1239 5.16367 13.1784 4.69193 12.921 4.36736L11.7457 5.2993ZM8.79111 1.51657L8.67311 0.775916L8.67311 0.775917L8.79111 1.51657ZM9.20889 1.51657L9.3269 0.775917L9.3269 0.775916L9.20889 1.51657ZM15.75 10.6667V11.5H17.25V10.6667H15.75ZM11.5 15.75H6.5V17.25H11.5V15.75ZM2.25 11.5V10.6667H0.75V11.5H2.25ZM6.5 15.75C5.69717 15.75 5.38307 15.7477 5.13218 15.7079L4.89753 17.1895C5.29441 17.2523 5.75449 17.25 6.5 17.25V15.75ZM0.75 11.5C0.75 12.2455 0.747672 12.7056 0.810532 13.1025L2.29206 12.8678C2.25233 12.6169 2.25 12.3028 2.25 11.5H0.75ZM5.13218 15.7079C3.67022 15.4764 2.52362 14.3298 2.29206 12.8678L0.810532 13.1025C1.14374 15.2063 2.79373 16.8563 4.89753 17.1895L5.13218 15.7079ZM15.75 11.5C15.75 12.3028 15.7477 12.6169 15.7079 12.8678L17.1895 13.1025C17.2523 12.7056 17.25 12.2455 17.25 11.5H15.75ZM11.5 17.25C12.2455 17.25 12.7056 17.2523 13.1025 17.1895L12.8678 15.7079C12.6169 15.7477 12.3028 15.75 11.5 15.75V17.25ZM15.7079 12.8678C15.4764 14.3298 14.3298 15.4764 12.8678 15.7079L13.1025 17.1895C15.2063 16.8563 16.8563 15.2063 17.1895 13.1025L15.7079 12.8678ZM17.25 10.6667C17.25 9.56068 16.8839 8.53803 16.2666 7.71623L15.0673 8.6171C15.4962 9.18806 15.75 9.89664 15.75 10.6667H17.25ZM2.25 10.6667C2.25 9.89664 2.50384 9.18806 2.9327 8.6171L1.73335 7.71623C1.11607 8.53803 0.75 9.56068 0.75 10.6667H2.25ZM9.75 13.1667V2.33333H8.25V13.1667H9.75ZM6.25435 5.2993L7.41922 3.83016L6.24386 2.89822L5.07898 4.36736L6.25435 5.2993ZM10.5808 3.83016L11.7457 5.2993L12.921 4.36736L11.7561 2.89822L10.5808 3.83016ZM7.41922 3.83016C7.89509 3.23 8.21289 2.83104 8.47874 2.56416C8.74125 2.30064 8.85955 2.26513 8.90912 2.25723L8.67311 0.775917C8.15655 0.858218 7.75955 1.16071 7.41604 1.50555C7.07587 1.84703 6.69695 2.32677 6.24386 2.89822L7.41922 3.83016ZM11.7561 2.89822C11.303 2.32677 10.9241 1.84703 10.584 1.50555C10.2405 1.16071 9.84345 0.858219 9.3269 0.775917L9.09088 2.25723C9.14045 2.26513 9.25876 2.30064 9.52126 2.56416C9.78711 2.83104 10.1049 3.23 10.5808 3.83016L11.7561 2.89822ZM8.90912 2.25723C8.93959 2.25238 8.9699 2.25 9 2.25V0.75C8.89057 0.75 8.78135 0.758671 8.67311 0.775916L8.90912 2.25723ZM9 2.25C9.03011 2.25 9.06042 2.25238 9.09089 2.25723L9.3269 0.775916C9.21866 0.758671 9.10943 0.75 9 0.75V2.25ZM9.75 2.33333V1.5H8.25V2.33333H9.75Z" fill="currentColor"/>
</svg>
