<svg width="24" height="24" viewBox="0 0 24 24" fill="none" xmlns="http://www.w3.org/2000/svg">
<g clip-path="url(#clip0_1052_5073)">
<path d="M12 24C18.6274 24 24 18.6274 24 12C24 5.37258 18.6274 0 12 0C5.37258 0 0 5.37258 0 12C0 18.6274 5.37258 24 12 24Z" fill="#3E73C4"/>
<path d="M15.0172 13.5932C15.0172 12.0002 14.0572 11.4542 12.1372 11.2262C10.7662 11.0439 10.4924 10.6802 10.4924 10.0427C10.4924 9.40519 10.9499 8.99569 11.8634 8.99569C12.6862 8.99569 13.1437 9.26869 13.3717 9.95194C13.3956 10.0179 13.4391 10.075 13.4963 10.1156C13.5535 10.1562 13.6217 10.1784 13.6919 10.1792H14.4232C14.4654 10.1803 14.5074 10.1729 14.5467 10.1573C14.5859 10.1417 14.6216 10.1182 14.6516 10.0884C14.6815 10.0586 14.7051 10.0231 14.7209 9.98386C14.7367 9.94467 14.7443 9.90268 14.7434 9.86044V9.81544C14.654 9.32111 14.4039 8.87014 14.0319 8.53257C13.6599 8.19501 13.1868 7.98975 12.6862 7.94869V6.85669C12.6862 6.67444 12.5489 6.53794 12.3209 6.49219H11.6347C11.4524 6.49219 11.3152 6.62869 11.2694 6.85669V7.90369C9.89765 8.08519 9.0299 8.99569 9.0299 10.1342C9.0299 11.6357 9.9434 12.2274 11.8634 12.4554C13.1437 12.6827 13.5547 12.9564 13.5547 13.6847C13.5547 14.4122 12.9149 14.9132 12.0464 14.9132C10.8577 14.9132 10.4467 14.4129 10.3094 13.7297C10.2644 13.5482 10.1264 13.4567 9.98915 13.4567H9.21215C9.16998 13.4557 9.12804 13.4632 9.08886 13.4788C9.04968 13.4945 9.01409 13.5179 8.98422 13.5477C8.95436 13.5775 8.93084 13.6131 8.9151 13.6522C8.89937 13.6913 8.89173 13.7333 8.89265 13.7754V13.8204C9.0749 14.9589 9.8069 15.7779 11.3152 16.0059V17.0987C11.3152 17.2802 11.4524 17.4174 11.6804 17.4624H12.3667C12.5489 17.4624 12.6862 17.3259 12.7319 17.0987V16.0052C14.1037 15.7779 15.0172 14.8217 15.0172 13.5924V13.5932Z" fill="white"/>
<path d="M9.66946 18.3727C6.10396 17.0977 4.27546 13.1377 5.60146 9.633C6.28696 7.7205 7.79521 6.26475 9.66946 5.5815C9.85246 5.49075 9.94321 5.35425 9.94321 5.12625V4.48875C9.94321 4.30725 9.85246 4.17075 9.66946 4.125C9.62371 4.125 9.53221 4.125 9.48646 4.17C8.45778 4.49124 7.50281 5.0128 6.67653 5.70463C5.85024 6.39646 5.16897 7.24491 4.67194 8.20112C4.17491 9.15733 3.87194 10.2024 3.78047 11.2762C3.68899 12.35 3.81083 13.4312 4.13896 14.4578C4.96096 17.0078 6.92671 18.9653 9.48646 19.7843C9.66946 19.875 9.85246 19.7842 9.89746 19.602C9.94321 19.557 9.94321 19.5105 9.94321 19.4198V18.7822C9.94321 18.6457 9.80671 18.4642 9.66946 18.3727ZM14.5145 4.17075C14.3315 4.07925 14.1485 4.17075 14.1035 4.35225C14.0577 4.398 14.0577 4.44375 14.0577 4.5345V5.172C14.0577 5.35425 14.1942 5.53575 14.3315 5.62725C17.897 6.90225 19.7255 10.8623 18.3995 14.367C17.714 16.2795 16.2057 17.7353 14.3315 18.4185C14.1485 18.5093 14.0577 18.6458 14.0577 18.8738V19.5112C14.0577 19.6927 14.1485 19.8293 14.3315 19.875C14.3772 19.875 14.4687 19.875 14.5145 19.83C15.5431 19.5088 16.4981 18.9872 17.3244 18.2954C18.1507 17.6035 18.8319 16.7551 19.329 15.7989C19.826 14.8427 20.129 13.7976 20.2205 12.7238C20.3119 11.65 20.1901 10.5688 19.862 9.54225C19.04 6.94725 17.0285 4.98975 14.5145 4.17075Z" fill="white"/>
</g>
<defs>
<clipPath id="clip0_1052_5073">
<rect width="24" height="24" fill="white"/>
</clipPath>
</defs>
</svg>
