<svg width="24" height="24" viewBox="0 0 20 20" fill="none" xmlns="http://www.w3.org/2000/svg">
<path fill-rule="evenodd" clip-rule="evenodd" d="M3.66194 1.75195L0.0152366 9.41185C0.0013598 9.44034 -0.00303765 9.47253 0.00268727 9.5037C0.0084122 9.53487 0.0239592 9.56339 0.0470546 9.58508L9.89592 19.0227C9.92389 19.0495 9.96116 19.0645 9.99992 19.0645C10.0387 19.0645 10.0759 19.0495 10.1039 19.0227L19.9528 9.58567C19.9759 9.56397 19.9914 9.53545 19.9971 9.50428C20.0029 9.47312 19.9985 9.44093 19.9846 9.41244L16.3379 1.75254C16.3261 1.72682 16.3072 1.70502 16.2834 1.68977C16.2596 1.67451 16.2318 1.66644 16.2036 1.66652H3.79746C3.76904 1.66616 3.74112 1.67404 3.71707 1.6892C3.69302 1.70436 3.67388 1.72615 3.66194 1.75195Z" fill="#50AF95"/>
<path fill-rule="evenodd" clip-rule="evenodd" d="M11.2652 10.1986C11.1945 10.2039 10.8292 10.2257 10.0143 10.2257C9.36613 10.2257 8.90594 10.2063 8.74449 10.1986C6.23971 10.0884 4.3701 9.65241 4.3701 9.13035C4.3701 8.6083 6.23971 8.17287 8.74449 8.06091V9.76436C8.9083 9.77614 9.37732 9.80384 10.0255 9.80384C10.8032 9.80384 11.1927 9.77143 11.2628 9.76495V8.06209C13.7623 8.17346 15.6278 8.60948 15.6278 9.13035C15.6278 9.65123 13.7629 10.0873 11.2628 10.198L11.2652 10.1986ZM11.2652 7.88592V6.36159H14.7534V4.03711H5.25629V6.36159H8.74391V7.88533C5.90915 8.01554 3.77734 8.57707 3.77734 9.24997C3.77734 9.92286 5.90915 10.4838 8.74391 10.6146V15.4993H11.2646V10.6128C14.0929 10.4826 16.2211 9.92168 16.2211 9.24938C16.2211 8.57707 14.0946 8.01613 11.2646 7.88533L11.2652 7.88592Z" fill="white"/>
</svg>
